<svg xmlns="http://www.w3.org/2000/svg" xmlns:xlink="http://www.w3.org/1999/xlink" width="800" height="689.59"><rect width="800" height="689.59" rx="5" ry="5" class="a"/><svg y="0%" x="0%"><circle cx="20" cy="20" r="6" fill="#ff5f58"/><circle cx="40" cy="20" r="6" fill="#ffbd2e"/><circle cx="60" cy="20" r="6" fill="#18c132"/></svg><svg height="629.59" viewBox="0 0 76 62.959" width="760" x="15" xmlns="http://www.w3.org/2000/svg" xmlns:xlink="http://www.w3.org/1999/xlink" y="50"><style>@keyframes n{0%{transform:translateX(0)}.9%{transform:translateX(-152px)}1.1%{transform:translateX(-304px)}17.7%{transform:translateX(-380px)}18.3%{transform:translateX(-456px)}19.2%{transform:translateX(-532px)}20.3%{transform:translateX(-608px)}21.2%{transform:translateX(-684px)}22.3%{transform:translateX(-760px)}23.9%{transform:translateX(-836px)}24.5%{transform:translateX(-912px)}26.2%{transform:translateX(-988px)}28.4%{transform:translateX(-1064px)}32%{transform:translateX(-1292px)}33.5%{transform:translateX(-1444px)}33.9%{transform:translateX(-1596px)}36.1%{transform:translateX(-1900px)}49.7%{transform:translateX(-2508px)}64.6%{transform:translateX(-2736px)}64.7%{transform:translateX(-2964px)}64.8%{transform:translateX(-3192px)}64.9%{transform:translateX(-3420px)}65%{transform:translateX(-3572px)}to{transform:translateX(-3648px)}}.a{fill:#282d35}.f,.g{fill:#71bef2;font-weight:700;white-space:pre}.g{fill:#a8cc8c}.h{fill:#b9c0cb}.h,.i,.j,.k{white-space:pre}.i{fill:#b9c0cb;font-weight:700}.j,.k{fill:#a8cc8c}.k{fill:#66c2cd}</style><g font-family="Monaco,Consolas,Menlo,'Bitstream Vera Sans Mono','Powerline Symbols',monospace" font-size="1.67"><defs><symbol id="1"><text y="1.67" class="f">advent-of-code</text><text x="15.03" y="1.67" class="g">[main]</text></symbol><symbol id="2"><text y="1.67" class="f">advent-of-code</text><text x="15.03" y="1.67" class="g">[main]</text><text x="22.044" y="1.67" class="h">yarn</text></symbol><symbol id="3"><text y="1.67" class="f">advent-of-code</text><text x="15.03" y="1.67" class="g">[main]</text><text x="22.044" y="1.67" class="h">yarn</text><text x="27.054" y="1.67" class="h">start</text></symbol><symbol id="4"><text y="1.67" class="i">yarn</text><text x="5.01" y="1.67" class="i">run</text><text x="9.018" y="1.67" class="i">v1.22.10</text></symbol><symbol id="5"><text y="1.67" class="h">$</text><text x="2.004" y="1.67" class="h">node</text><text x="7.014" y="1.67" class="h">src/bootstrap.js</text></symbol><symbol id="6"><text y="1.67" class="j">?</text><text x="2.004" y="1.67" class="i">Choose</text><text x="9.018" y="1.67" class="i">year</text><text x="14.028" y="1.67" class="h">(Use</text><text x="19.038" y="1.67" class="h">arrow</text><text x="25.05" y="1.67" class="h">keys)</text></symbol><symbol id="7"><text y="1.67" class="k">❯</text><text x="2.004" y="1.67" class="k">2020</text></symbol><symbol id="8"><text y="1.67" class="j">?</text><text x="2.004" y="1.67" class="i">Choose</text><text x="9.018" y="1.67" class="i">year</text><text x="14.028" y="1.67" class="k">2020</text></symbol><symbol id="9"><text y="1.67" class="j">?</text><text x="2.004" y="1.67" class="i">Choose</text><text x="9.018" y="1.67" class="i">a</text><text x="11.022" y="1.67" class="i">day</text><text x="15.03" y="1.67" class="h">(Use</text><text x="20.04" y="1.67" class="h">arrow</text><text x="26.052" y="1.67" class="h">keys)</text></symbol><symbol id="10"><text y="1.67" class="k">❯</text><text x="2.004" y="1.67" class="k">1</text></symbol><symbol id="11"><text y="1.67" class="j">?</text><text x="2.004" y="1.67" class="i">Choose</text><text x="9.018" y="1.67" class="i">a</text><text x="11.022" y="1.67" class="i">day</text><text x="15.03" y="1.67" class="k">1</text></symbol><symbol id="12"><text y="1.67" class="h">Part</text><text x="5.01" y="1.67" class="h">one:</text><text x="10.02" y="1.67" class="h">858496</text></symbol><symbol id="13"><text y="1.67" class="h">Part</text><text x="5.01" y="1.67" class="h">two:</text><text x="10.02" y="1.67" class="h">263819430</text></symbol><symbol id="14"><text y="1.67" class="h">Done</text><text x="5.01" y="1.67" class="h">in</text><text x="8.016" y="1.67" class="h">2.88s.</text></symbol><symbol id="a"><path fill="transparent" d="M0 0h76v29H0z"/></symbol><symbol id="b"><path fill="#6f7683" d="M0 0h1.102v2.171H0z"/></symbol></defs><path class="a" d="M0 0h76v62.959H0z"/><g style="animation-duration:9.204615s;animation-iteration-count:infinite;animation-name:n;animation-timing-function:steps(1,end)"><svg width="3724"><svg><use xlink:href="#a"/><use xlink:href="#b" x="-.004"/></svg><svg x="76"><use xlink:href="#a"/><use xlink:href="#b" x="-.004"/></svg><svg x="152"><use xlink:href="#a"/><use xlink:href="#b" x="-.004"/></svg><svg x="228"><use xlink:href="#a"/><use xlink:href="#b" x="21.996"/><use xlink:href="#1"/></svg><svg x="304"><use xlink:href="#a"/><use xlink:href="#b" x="21.996"/><use xlink:href="#1"/></svg><svg x="380"><use xlink:href="#a"/><use xlink:href="#b" x="22.996"/><text y="1.67" class="f">advent-of-code</text><text x="15.03" y="1.67" class="g">[main]</text><text x="22.044" y="1.67" class="h">y</text></svg><svg x="456"><use xlink:href="#a"/><use xlink:href="#b" x="23.996"/><text y="1.67" class="f">advent-of-code</text><text x="15.03" y="1.67" class="g">[main]</text><text x="22.044" y="1.67" class="h">ya</text></svg><svg x="532"><use xlink:href="#a"/><use xlink:href="#b" x="24.996"/><text y="1.67" class="f">advent-of-code</text><text x="15.03" y="1.67" class="g">[main]</text><text x="22.044" y="1.67" class="h">yar</text></svg><svg x="608"><use xlink:href="#a"/><use xlink:href="#b" x="25.996"/><use xlink:href="#2"/></svg><svg x="684"><use xlink:href="#a"/><use xlink:href="#b" x="26.996"/><use xlink:href="#2"/></svg><svg x="760"><use xlink:href="#a"/><use xlink:href="#b" x="27.996"/><text y="1.67" class="f">advent-of-code</text><text x="15.03" y="1.67" class="g">[main]</text><text x="22.044" y="1.67" class="h">yarn</text><text x="27.054" y="1.67" class="h">s</text></svg><svg x="836"><use xlink:href="#a"/><use xlink:href="#b" x="28.996"/><text y="1.67" class="f">advent-of-code</text><text x="15.03" y="1.67" class="g">[main]</text><text x="22.044" y="1.67" class="h">yarn</text><text x="27.054" y="1.67" class="h">st</text></svg><svg x="912"><use xlink:href="#a"/><use xlink:href="#b" x="29.996"/><text y="1.67" class="f">advent-of-code</text><text x="15.03" y="1.67" class="g">[main]</text><text x="22.044" y="1.67" class="h">yarn</text><text x="27.054" y="1.67" class="h">sta</text></svg><svg x="988"><use xlink:href="#a"/><use xlink:href="#b" x="30.996"/><text y="1.67" class="f">advent-of-code</text><text x="15.03" y="1.67" class="g">[main]</text><text x="22.044" y="1.67" class="h">yarn</text><text x="27.054" y="1.67" class="h">star</text></svg><svg x="1064"><use xlink:href="#a"/><use xlink:href="#b" x="31.996"/><use xlink:href="#3"/></svg><svg x="1140"><use xlink:href="#a"/><use xlink:href="#b" x="31.996"/><use xlink:href="#3"/></svg><svg x="1216"><use xlink:href="#a"/><use xlink:href="#b" x="-.004" y="2.146"/><use xlink:href="#3"/></svg><svg x="1292"><use xlink:href="#a"/><use xlink:href="#b" x="-.004" y="2.146"/><use xlink:href="#3"/></svg><svg x="1368"><use xlink:href="#a"/><use xlink:href="#b" x="-.004" y="2.146"/><use xlink:href="#3"/></svg><svg x="1444"><use xlink:href="#a"/><use xlink:href="#b" x="-.004" y="4.317"/><use xlink:href="#3"/><use xlink:href="#4" y="2.171"/></svg><svg x="1520"><use xlink:href="#a"/><use xlink:href="#b" x="-.004" y="4.317"/><use xlink:href="#3"/><use xlink:href="#4" y="2.171"/></svg><svg x="1596"><use xlink:href="#a"/><use xlink:href="#b" x="-.004" y="6.488"/><use xlink:href="#3"/><use xlink:href="#4" y="2.171"/><use xlink:href="#5" y="4.342"/></svg><svg x="1672"><use xlink:href="#a"/><use xlink:href="#3"/><use xlink:href="#4" y="2.171"/><use xlink:href="#5" y="4.342"/></svg><svg x="1748"><use xlink:href="#a"/><use xlink:href="#3"/><use xlink:href="#4" y="2.171"/><use xlink:href="#5" y="4.342"/><use xlink:href="#6" y="6.513"/><use xlink:href="#7" y="8.684"/></svg><svg x="1824"><use xlink:href="#a"/><use xlink:href="#3"/><use xlink:href="#4" y="2.171"/><use xlink:href="#5" y="4.342"/><use xlink:href="#6" y="6.513"/><use xlink:href="#7" y="8.684"/></svg><svg x="1900"><use xlink:href="#a"/><use xlink:href="#3"/><use xlink:href="#4" y="2.171"/><use xlink:href="#5" y="4.342"/><use xlink:href="#6" y="6.513"/><use xlink:href="#7" y="8.684"/></svg><svg x="1976"><use xlink:href="#a"/><use xlink:href="#3"/><use xlink:href="#4" y="2.171"/><use xlink:href="#5" y="4.342"/></svg><svg x="2052"><use xlink:href="#a"/><use xlink:href="#3"/><use xlink:href="#4" y="2.171"/><use xlink:href="#5" y="4.342"/><use xlink:href="#8" y="6.513"/></svg><svg x="2128"><use xlink:href="#a"/><use xlink:href="#3"/><use xlink:href="#4" y="2.171"/><use xlink:href="#5" y="4.342"/><use xlink:href="#8" y="6.513"/></svg><svg x="2204"><use xlink:href="#a"/><use xlink:href="#3"/><use xlink:href="#4" y="2.171"/><use xlink:href="#5" y="4.342"/><use xlink:href="#8" y="6.513"/></svg><svg x="2280"><use xlink:href="#a"/><use xlink:href="#b" x="-.004" y="8.659"/><use xlink:href="#3"/><use xlink:href="#4" y="2.171"/><use xlink:href="#5" y="4.342"/><use xlink:href="#8" y="6.513"/></svg><svg x="2356"><use xlink:href="#a"/><use xlink:href="#3"/><use xlink:href="#4" y="2.171"/><use xlink:href="#5" y="4.342"/><use xlink:href="#8" y="6.513"/></svg><svg x="2432"><use xlink:href="#a"/><use xlink:href="#3"/><use xlink:href="#4" y="2.171"/><use xlink:href="#5" y="4.342"/><use xlink:href="#8" y="6.513"/><use xlink:href="#9" y="8.684"/><use xlink:href="#10" y="10.855"/></svg><svg x="2508"><use xlink:href="#a"/><use xlink:href="#3"/><use xlink:href="#4" y="2.171"/><use xlink:href="#5" y="4.342"/><use xlink:href="#8" y="6.513"/><use xlink:href="#9" y="8.684"/><use xlink:href="#10" y="10.855"/></svg><svg x="2584"><use xlink:href="#a"/><use xlink:href="#3"/><use xlink:href="#4" y="2.171"/><use xlink:href="#5" y="4.342"/><use xlink:href="#8" y="6.513"/></svg><svg x="2660"><use xlink:href="#a"/><use xlink:href="#3"/><use xlink:href="#4" y="2.171"/><use xlink:href="#5" y="4.342"/><use xlink:href="#8" y="6.513"/><use xlink:href="#11" y="8.684"/></svg><svg x="2736"><use xlink:href="#a"/><use xlink:href="#b" x="-.004" y="10.83"/><use xlink:href="#3"/><use xlink:href="#4" y="2.171"/><use xlink:href="#5" y="4.342"/><use xlink:href="#8" y="6.513"/><use xlink:href="#11" y="8.684"/></svg><svg x="2812"><use xlink:href="#a"/><use xlink:href="#b" x="-.004" y="13.001"/><use xlink:href="#3"/><use xlink:href="#4" y="2.171"/><use xlink:href="#5" y="4.342"/><use xlink:href="#8" y="6.513"/><use xlink:href="#11" y="8.684"/><use xlink:href="#12" y="10.855"/></svg><svg x="2888"><use xlink:href="#a"/><use xlink:href="#b" x="-.004" y="15.172"/><use xlink:href="#3"/><use xlink:href="#4" y="2.171"/><use xlink:href="#5" y="4.342"/><use xlink:href="#8" y="6.513"/><use xlink:href="#11" y="8.684"/><use xlink:href="#12" y="10.855"/><use xlink:href="#13" y="13.026"/></svg><svg x="2964"><use xlink:href="#a"/><use xlink:href="#b" x="-.004" y="15.172"/><use xlink:href="#3"/><use xlink:href="#4" y="2.171"/><use xlink:href="#5" y="4.342"/><use xlink:href="#8" y="6.513"/><use xlink:href="#11" y="8.684"/><use xlink:href="#12" y="10.855"/><use xlink:href="#13" y="13.026"/></svg><svg x="3040"><use xlink:href="#a"/><use xlink:href="#b" x="-.004" y="15.172"/><use xlink:href="#3"/><use xlink:href="#4" y="2.171"/><use xlink:href="#5" y="4.342"/><use xlink:href="#8" y="6.513"/><use xlink:href="#11" y="8.684"/><use xlink:href="#12" y="10.855"/><use xlink:href="#13" y="13.026"/></svg><svg x="3116"><use xlink:href="#a"/><use xlink:href="#b" x="-.004" y="15.172"/><use xlink:href="#3"/><use xlink:href="#4" y="2.171"/><use xlink:href="#5" y="4.342"/><use xlink:href="#8" y="6.513"/><use xlink:href="#11" y="8.684"/><use xlink:href="#12" y="10.855"/><use xlink:href="#13" y="13.026"/></svg><svg x="3192"><use xlink:href="#a"/><use xlink:href="#b" x="-.004" y="17.343"/><use xlink:href="#3"/><use xlink:href="#4" y="2.171"/><use xlink:href="#5" y="4.342"/><use xlink:href="#8" y="6.513"/><use xlink:href="#11" y="8.684"/><use xlink:href="#12" y="10.855"/><use xlink:href="#13" y="13.026"/><use xlink:href="#14" y="15.197"/></svg><svg x="3268"><use xlink:href="#a"/><use xlink:href="#b" x="-.004" y="17.343"/><use xlink:href="#3"/><use xlink:href="#4" y="2.171"/><use xlink:href="#5" y="4.342"/><use xlink:href="#8" y="6.513"/><use xlink:href="#11" y="8.684"/><use xlink:href="#12" y="10.855"/><use xlink:href="#13" y="13.026"/><use xlink:href="#14" y="15.197"/></svg><svg x="3344"><use xlink:href="#a"/><use xlink:href="#b" x="-.004" y="17.343"/><use xlink:href="#3"/><use xlink:href="#4" y="2.171"/><use xlink:href="#5" y="4.342"/><use xlink:href="#8" y="6.513"/><use xlink:href="#11" y="8.684"/><use xlink:href="#12" y="10.855"/><use xlink:href="#13" y="13.026"/><use xlink:href="#14" y="15.197"/></svg><svg x="3420"><use xlink:href="#a"/><use xlink:href="#b" x="-.004" y="17.343"/><use xlink:href="#3"/><use xlink:href="#4" y="2.171"/><use xlink:href="#5" y="4.342"/><use xlink:href="#8" y="6.513"/><use xlink:href="#11" y="8.684"/><use xlink:href="#12" y="10.855"/><use xlink:href="#13" y="13.026"/><use xlink:href="#14" y="15.197"/></svg><svg x="3496"><use xlink:href="#a"/><use xlink:href="#b" x="21.996" y="17.343"/><use xlink:href="#3"/><use xlink:href="#4" y="2.171"/><use xlink:href="#5" y="4.342"/><use xlink:href="#8" y="6.513"/><use xlink:href="#11" y="8.684"/><use xlink:href="#12" y="10.855"/><use xlink:href="#13" y="13.026"/><use xlink:href="#14" y="15.197"/><use xlink:href="#1" y="17.368"/></svg><svg x="3572"><use xlink:href="#a"/><use xlink:href="#b" x="21.996" y="17.343"/><use xlink:href="#3"/><use xlink:href="#4" y="2.171"/><use xlink:href="#5" y="4.342"/><use xlink:href="#8" y="6.513"/><use xlink:href="#11" y="8.684"/><use xlink:href="#12" y="10.855"/><use xlink:href="#13" y="13.026"/><use xlink:href="#14" y="15.197"/><use xlink:href="#1" y="17.368"/></svg><svg x="3648"><use xlink:href="#a"/><use xlink:href="#b" x="-.004" y="19.514"/><use xlink:href="#3"/><use xlink:href="#4" y="2.171"/><use xlink:href="#5" y="4.342"/><use xlink:href="#8" y="6.513"/><use xlink:href="#11" y="8.684"/><use xlink:href="#12" y="10.855"/><use xlink:href="#13" y="13.026"/><use xlink:href="#14" y="15.197"/><use xlink:href="#1" y="17.368"/></svg></svg></g></g></svg></svg>